PathFileType	4	(X/Y/Z)	/Users/itak/Documents/Research/Walk-IL/dataset/trc/00583_00009.trc
DataRate	CameraRate	NumFrames	NumMarkers	Units	OrigDataRate	OrigDataStartFrame	OrigNumFrames
100.000000	100.000000	4	53	mm	100.000000	148	594
Frame#	Time	RPSI			LPSI			L3			STRN			T10			C7			CLAV			RBAK			LBAK			LSHO			LUPA			LAEL			LAOL			LWTS			LWPS			LFRA			LIFD			LHPS			LHTS			RSHO			RUPA			RAEL			RAOL			RWTS			RWPS			RFRA			RIFD			RHTS			RHPS			RBHD			LFHD			RFHD			LBHD			LHIP			RHIP			RASI			LASI			LKNE			LTHI			LANK			LTIP			LTOE			LMT1			LMT5			LHEE			RKNE			RTHI			RANK			RTIP			RTOE			RMT1			RMT5			RHEE			
		X1	Y1	Z1	X2	Y2	Z2	X3	Y3	Z3	X4	Y4	Z4	X5	Y5	Z5	X6	Y6	Z6	X7	Y7	Z7	X8	Y8	Z8	X9	Y9	Z9	X10	Y10	Z10	X11	Y11	Z11	X12	Y12	Z12	X13	Y13	Z13	X14	Y14	Z14	X15	Y15	Z15	X16	Y16	Z16	X17	Y17	Z17	X18	Y18	Z18	X19	Y19	Z19	X20	Y20	Z20	X21	Y21	Z21	X22	Y22	Z22	X23	Y23	Z23	X24	Y24	Z24	X25	Y25	Z25	X26	Y26	Z26	X27	Y27	Z27	X28	Y28	Z28	X29	Y29	Z29	X30	Y30	Z30	X31	Y31	Z31	X32	Y32	Z32	X33	Y33	Z33	X34	Y34	Z34	X35	Y35	Z35	X36	Y36	Z36	X37	Y37	Z37	X38	Y38	Z38	X39	Y39	Z39	X40	Y40	Z40	X41	Y41	Z41	X42	Y42	Z42	X43	Y43	Z43	X44	Y44	Z44	X45	Y45	Z45	X46	Y46	Z46	X47	Y47	Z47	X48	Y48	Z48	X49	Y49	Z49	X50	Y50	Z50	X51	Y51	Z51	X52	Y52	Z52	X53	Y53	Z53	

149	1.48	-1108.304809570312	1009.973266601562	-77.12734222412109	-1029.456176757812	1013.941528320312	-185.6197509765625	-1060.039672851562	1113.699951171875	-124.0863647460938	-854.625244140625	1279.330932617188	24.19599723815918	-1059.345581054688	1238.43212890625	-121.0485763549805	-1008.836242675781	1506.247192382812	-63.48810958862305	-861.740234375	1392.863647460938	23.28239250183105	-1123.390502929688	1386.966552734375	-38.49609756469727	-985.3759155273438	1461.2802734375	-163.207275390625	-855.2080078125	1478.258056640625	-170.2113952636719	-820.47265625	1356.96826171875	-249.7550354003906	-792.0948486328125	1136.622802734375	-273.2059936523438	-892.404052734375	1132.1455078125	-290.6606140136719	-759.8412475585938	887.5535278320312	-193.6650543212891	-746.5997314453125	870.0744018554688	-277.9776306152344	-772.1558227539062	1049.319091796875	-269.9038696289062	-773.5034790039062	722.5467529296875	-205.2611083984375	-746.5936889648438	809.475341796875	-270.5608825683594	-736.1585083007812	810.1541137695312	-203.3735504150391	-1049.789672851562	1463.727661132812	96.78003692626953	-1106.44287109375	1400.382202148438	139.7967376708984	-1150.136108398438	1111.786865234375	169.2641754150391	-1185.251953125	1099.030517578125	117.4169082641602	-1028.957153320312	881.6394653320312	195.8654479980469	-1103.360717773438	865.169921875	229.2720489501953	-1148.955810546875	1055.998168945312	179.2458343505859	-1042.78564453125	726.2361450195312	171.3918151855469	-1019.883850097656	786.9132690429688	219.2640838623047	-1093.656372070312	789.6309204101562	233.3263244628906	-973.8517456054688	1674.244018554688	48.81577682495117	-769.3350830078125	1686.286865234375	16.12666320800781	-859.7553100585938	1681.778686523438	130.9900360107422	-865.4607543945312	1677.447143554688	-76.11383056640625	-843.1300659179688	937.0189208984375	-208.3731689453125	-1092.110229492188	926.1043701171875	89.30400085449219	-986.416748046875	955.6460571289062	101.4809722900391	-820.9429931640625	959.599365234375	-118.6724090576172	-738.087890625	514.9053955078125	-64.80709838867188	-764.9974975585938	677.62548828125	-120.2188034057617	-927.6878051757812	93.89845275878906	-220.3069305419922	-846.9251098632812	296.3617858886719	-159.8012847900391	-796.2697143554688	62.67036819458008	-58.96533203125	-873.7440185546875	68.27029418945312	-69.43104553222656	-823.1281127929688	67.75868988037109	-163.5289154052734	-1012.835266113281	110.0599822998047	-214.4831848144531	-1058.721923828125	484.5585632324219	21.3672924041748	-1061.63720703125	769.1889038085938	97.37229156494141	-1132.887573242188	34.71723175048828	-99.767822265625	-1057.475219726562	343.0798034667969	-7.666626453399658	-936.0973510742188	38.13398742675781	11.0594425201416	-956.9144897460938	38.83330917358398	-61.93730926513672	-1043.162963867188	38.0400390625	0.1911287009716034	-1137.173583984375	26.94259262084961	-176.9892425537109	
150	1.49	-1106.168823242188	1009.677673339844	-75.40377044677734	-1027.455688476562	1013.847229003906	-184.0123596191406	-1058.103149414062	1113.510131835938	-122.1204223632812	-852.3441772460938	1278.944458007812	26.34806060791016	-1057.519409179688	1238.327270507812	-118.7484359741211	-1006.401000976562	1506.005981445312	-60.99142456054688	-859.360107421875	1392.423095703125	25.4696159362793	-1121.092163085938	1386.923828125	-35.92114639282227	-983.2349853515625	1461.037719726562	-160.7508544921875	-853.0299682617188	1477.798217773438	-168.0846862792969	-818.9197998046875	1356.53466796875	-247.8565216064453	-791.59130859375	1136.12158203125	-272.0228576660156	-891.9970703125	1132.144409179688	-288.7641906738281	-759.9774780273438	886.4453735351562	-193.9623565673828	-747.3645629882812	869.398681640625	-278.4721984863281	-771.9786987304688	1048.693969726562	-269.3154296875	-774.2623291015625	721.2916870117188	-206.2464752197266	-747.7216186523438	808.760009765625	-271.4248046875	-736.921875	808.893310546875	-204.2792053222656	-1047.179321289062	1463.529296875	99.29225158691406	-1103.838500976562	1400.2490234375	142.3430480957031	-1147.754272460938	1111.661743164062	171.6439056396484	-1183.013427734375	1098.972412109375	119.859016418457	-1026.596313476562	881.41357421875	197.8374176025391	-1101.00830078125	864.9691772460938	231.4290008544922	-1146.57568359375	1055.868896484375	181.5836334228516	-1040.922241210938	726.9102783203125	172.7084503173828	-1017.604614257812	786.5833129882812	221.0861358642578	-1091.378051757812	789.4036865234375	235.3664855957031	-970.7329711914062	1673.969482421875	51.49159622192383	-766.2601928710938	1685.388793945312	18.48886680603027	-856.4518432617188	1681.004028320312	133.4823303222656	-862.4948120117188	1677.030029296875	-73.61980438232422	-840.6312866210938	937.1777954101562	-205.8816680908203	-1090.445556640625	925.6649780273438	90.92127990722656	-984.823974609375	955.2310791015625	103.5950622558594	-818.9264526367188	959.7564697265625	-116.2381286621094	-732.6962890625	516.8302612304688	-59.91557693481445	-761.0049438476562	678.893310546875	-116.4788131713867	-920.167236328125	93.35611724853516	-211.3457946777344	-840.5330810546875	296.7168273925781	-152.8118743896484	-787.638427734375	64.67373657226562	-50.43224716186523	-865.0807495117188	69.33823394775391	-60.70129013061523	-815.0226440429688	68.74559020996094	-154.955322265625	-1005.315002441406	108.5653533935547	-205.2268218994141	-1057.805297851562	484.3031616210938	22.25868606567383	-1060.250610351562	768.7647705078125	98.76388549804688	-1132.84423828125	34.77081680297852	-99.77872467041016	-1056.950317382812	342.8902282714844	-6.978859901428223	-936.1260986328125	38.10907745361328	11.12686157226562	-956.9168090820312	38.84609985351562	-61.90999221801758	-1043.192626953125	37.98681640625	0.2706617116928101	-1137.136352539062	27.03190803527832	-177.0047912597656	
151	1.5	-1103.928833007812	1009.359558105469	-73.6494140625	-1025.37744140625	1013.718994140625	-182.3701171875	-1056.06103515625	1113.316528320312	-120.1116943359375	-849.9721069335938	1278.518798828125	28.57691192626953	-1055.573852539062	1238.202026367188	-116.4310836791992	-1003.834655761719	1505.74365234375	-58.44131851196289	-856.8797607421875	1391.946655273438	27.73992919921875	-1118.672485351562	1386.87158203125	-33.30710983276367	-980.9794921875	1460.78564453125	-158.2522583007812	-850.6927490234375	1477.315551757812	-165.8599700927734	-817.2010498046875	1356.075805664062	-245.8501739501953	-790.95947265625	1135.593994140625	-270.7613525390625	-891.4374389648438	1132.135498046875	-286.7832641601562	-760.0120239257812	885.3106079101562	-194.1492156982422	-748.0101928710938	868.716064453125	-278.8793334960938	-771.6405639648438	1048.07763671875	-268.6371459960938	-774.9374389648438	720.004638671875	-207.1375427246094	-748.7701416015625	808.044921875	-272.2123107910156	-737.6018676757812	807.6002807617188	-205.0906677246094	-1044.46875	1463.315795898438	101.8586349487305	-1101.126831054688	1400.112426757812	144.9188842773438	-1145.285400390625	1111.535766601562	174.0683746337891	-1180.686645507812	1098.9072265625	122.3418350219727	-1024.07861328125	881.2203979492188	199.8647918701172	-1098.5048828125	864.7775268554688	233.6398773193359	-1144.09814453125	1055.73828125	183.9717407226562	-1038.8525390625	727.5255126953125	174.1210174560547	-1015.159240722656	786.2876586914062	222.9795532226562	-1088.928588867188	789.19091796875	237.4617462158203	-967.5029907226562	1673.677490234375	54.2241325378418	-763.0540161132812	1684.461669921875	20.88064002990723	-853.0140991210938	1680.21044921875	136.0236968994141	-859.4332885742188	1676.574462890625	-71.09639739990234	-838.057373046875	937.3124389648438	-203.3558197021484	-1088.657104492188	925.2183227539062	92.58806610107422	-983.1264038085938	954.8013305664062	105.7454528808594	-816.84130859375	959.857666015625	-113.7935485839844	-727.4735717773438	518.68212890625	-55.14818954467773	-757.217529296875	679.9978637695312	-112.85400390625	-911.97998046875	92.17890167236328	-201.7735137939453	-833.8925170898438	296.7291870117188	-145.6122894287109	-778.234375	66.47487640380859	-41.33795547485352	-855.638916015625	70.10611724853516	-51.38290023803711	-806.2067260742188	69.30815887451172	-145.8100433349609	-997.1053466796875	106.3087387084961	-195.2782592773438	-1056.832153320312	484.0399780273438	23.20191383361816	-1058.747802734375	768.3380126953125	100.1884231567383	-1132.796508789062	34.82830047607422	-99.78810882568359	-1056.376586914062	342.6862182617188	-6.285354137420654	-936.15966796875	38.08266830444336	11.21637535095215	-956.9094848632812	38.85321426391602	-61.8942756652832	-1043.228637695312	37.93065643310547	0.3583383560180664	-1137.115600585938	27.16005325317383	-176.9994812011719	
152	1.51	-1101.603637695312	1009.0087890625	-71.84645843505859	-1023.222229003906	1013.533142089844	-180.6718597412109	-1053.92138671875	1113.11767578125	-118.0567779541016	-847.5147094726562	1278.041137695312	30.88006210327148	-1053.49609375	1238.048095703125	-114.093620300293	-1001.134948730469	1505.453247070312	-55.83663940429688	-854.2913818359375	1391.4267578125	30.0843677520752	-1116.132446289062	1386.800048828125	-30.65438461303711	-978.6122436523438	1460.525512695312	-155.7161254882812	-848.1973266601562	1476.800537109375	-163.5398864746094	-815.3153076171875	1355.582397460938	-243.7397155761719	-790.178955078125	1135.019409179688	-269.4132385253906	-890.7086181640625	1132.099609375	-284.7203979492188	-759.9361572265625	884.1446533203125	-194.2364501953125	-748.5267333984375	868.0156860351562	-279.1892395019531	-771.13427734375	1047.461669921875	-267.8532104492188	-775.5051879882812	718.6923828125	-207.9275360107422	-749.7183227539062	807.3184204101562	-272.9139099121094	-738.1751708984375	806.2816772460938	-205.800537109375	-1041.655029296875	1463.074340820312	104.4781951904297	-1098.308349609375	1399.955322265625	147.526611328125	-1142.73828125	1111.395141601562	176.5418548583984	-1178.274536132812	1098.822143554688	124.8661346435547	-1021.423583984375	881.0526123046875	201.9668426513672	-1095.857055664062	864.5829467773438	235.9067077636719	-1141.5283203125	1055.5927734375	186.4077911376953	-1036.55908203125	728.060546875	175.6445922851562	-1012.558532714844	786.0227661132812	224.9700775146484	-1086.313232421875	788.9803466796875	239.6219635009766	-964.1627807617188	1673.359985351562	57.01312255859375	-759.7130737304688	1683.505615234375	23.30132865905762	-849.4466552734375	1679.391723632812	138.6141967773438	-856.283447265625	1676.076049804688	-68.54116821289062	-835.4417114257812	937.420654296875	-200.8550415039062	-1086.741088867188	924.7588500976562	94.32088470458984	-981.3002319335938	954.3482055664062	107.9145736694336	-814.6950073242188	959.89013671875	-111.3496932983398	-722.4154663085938	520.4472045898438	-50.47014999389648	-753.5934448242188	680.9436645507812	-109.3227233886719	-903.123291015625	90.44062042236328	-191.6377258300781	-826.9828491210938	296.4220275878906	-138.2038116455078	-768.1329956054688	68.09152984619141	-31.70846939086914	-845.5047607421875	70.62065887451172	-41.50191879272461	-796.7205810546875	69.49101257324219	-136.1097106933594	-988.2291870117188	103.4190444946289	-184.722900390625	-1055.797607421875	483.7642211914062	24.20500755310059	-1057.117309570312	767.90380859375	101.6643753051758	-1132.747680664062	34.88598251342773	-99.79479217529297	-1055.747802734375	342.4584350585938	-5.584413051605225	-936.2008056640625	38.05773544311523	11.33396244049072	-956.8970336914062	38.85891342163086	-61.88258743286133	-1043.272338867188	37.86992263793945	0.4554984271526337	-1137.099609375	27.31368446350098	-176.984130859375	
